<svg xmlns="http://www.w3.org/2000/svg" xmlns:xlink="http://www.w3.org/1999/xlink" style="width: 100%; height: 100%" viewBox="0 0 400 400" preserveAspectRatio="none" width="400" height="400"><defs><svg width="400" height="400" fill="none" xmlns="http://www.w3.org/2000/svg" id="svg248107050_651"><path d="M322.006 120.001a2 2 0 0 0-2 2.006l.375 117.738c.141 44.282-35.718 80.254-80 80.254H2a2 2 0 0 0-2 2v76a2 2 0 0 0 2 2h238c88.366 0 160-71.634 160-160V122.001a2 2 0 0 0-2-2h-75.994Z" fill="#7CFEA3"></path><path d="M78 279.999a2 2 0 0 0 2-2V160c0-44.183 35.818-80 80-80h238a2 2 0 0 0 2-2V2a2 2 0 0 0-2-2H160C71.634 0 0 71.634 0 160v117.998a2 2 0 0 0 2 2h76Z" fill="#7CFEA3"></path><path d="M120.167 159.944c.031-22.069 17.931-39.944 40-39.944H240c22.091 0 40 17.909 40 40l-.001 80c0 22.092-17.909 40-40 40h-79.943c-22.113 0-40.031-17.943-40-40.056l.111-80Z" fill="#7CFEA3"></path></svg></defs><use href="#svg248107050_651"></use></svg>